# xmcd
#
# Track frame offsets: 
#        150
#        18757
#        37435
#        52837
#        64722
#        80340
#        94152
#        111762
#        128535
#        139210
#
# Disc length: 2041 seconds
#
# Revision: 2
# Processed by: cddbd v1.5.1PL2 Copyright (c) Steve Scherf et al.
# Submitted via: ExactAudioCopy v0.95b4
#
DISCID=7e07f70a
DTITLE=Bruce Guthro - Sails To The Wind
DYEAR=1997
DGENRE=Country
TTITLE0=Runnin' Away
TTITLE1=I'll Surrender
TTITLE2=Him And God And Me
TTITLE3=Cheer Up Buddy
TTITLE4=I See It From Here
TTITLE5=Small Town Heroes
TTITLE6=Sails To The Wind
TTITLE7=Livin' In The 90's
TTITLE8=The Back Shore
TTITLE9=Men Of The Deep
EXTD=
EXTT0=
EXTT1=
EXTT2=
EXTT3=
EXTT4=
EXTT5=
EXTT6=
EXTT7=
EXTT8=
EXTT9=
PLAYORDER=
